<?xml version="1.0" encoding="UTF-8" standalone="no"?>
<svg
   xmlns:dc="http://purl.org/dc/elements/1.1/"
   xmlns:cc="http://creativecommons.org/ns#"
   xmlns:rdf="http://www.w3.org/1999/02/22-rdf-syntax-ns#"
   xmlns:svg="http://www.w3.org/2000/svg"
   xmlns="http://www.w3.org/2000/svg"
   xmlns:sodipodi="http://sodipodi.sourceforge.net/DTD/sodipodi-0.dtd"
   xmlns:inkscape="http://www.inkscape.org/namespaces/inkscape"
   version="1.1"
   id="svg2"
   xml:space="preserve"
   width="497.33334"
   height="154.66667"
   viewBox="0 0 497.33334 154.66667"
   sodipodi:docname="tines.eps"><metadata
     id="metadata8"><rdf:RDF><cc:Work
         rdf:about=""><dc:format>image/svg+xml</dc:format><dc:type
           rdf:resource="http://purl.org/dc/dcmitype/StillImage" /></cc:Work></rdf:RDF></metadata><defs
     id="defs6" /><sodipodi:namedview
     pagecolor="#ffffff"
     bordercolor="#666666"
     borderopacity="1"
     objecttolerance="10"
     gridtolerance="10"
     guidetolerance="10"
     inkscape:pageopacity="0"
     inkscape:pageshadow="2"
     inkscape:window-width="640"
     inkscape:window-height="480"
     id="namedview4" /><g
     id="g10"
     inkscape:groupmode="layer"
     inkscape:label="ink_ext_XXXXXX"
     transform="matrix(1.3333333,0,0,-1.3333333,0,154.66667)"><g
       id="g12"
       transform="scale(0.1)"><path
         d="M 1584.65,780.43 H 1477.5 V 668.949 h 107.15 V 425.43 c 0,-121.25 77.93,-190.508 197.03,-190.508 h 87.66 v 120.117 h -72.54 c -49.77,0 -78.99,28.16 -78.99,83.359 v 230.551 h 151.53 V 780.43 h -151.53 v 164.531 h -133.16 z"
         style="fill:#32313b;fill-opacity:1;fill-rule:nonzero;stroke:none"
         id="path14" /><path
         d="m 1931.37,865.98 h 147.219 V 1017.5 H 1931.37 Z m 139.65,-85.55 H 1937.891 V 234.922 h 133.129 z"
         style="fill:#32313b;fill-opacity:1;fill-rule:nonzero;stroke:none"
         id="path16" /><path
         d="m 2285.78,234.922 v 297.656 c 0,80.082 51.95,138.551 126.64,138.551 68.17,0 113.63,-51.949 113.63,-126.641 V 234.922 h 133.17 v 337.699 c 0,127.731 -80.12,216.481 -203.52,216.481 -77.93,0 -139.61,-33.551 -169.92,-93.082 v 84.41 H 2152.62 V 234.922 Z"
         style="fill:#32313b;fill-opacity:1;fill-rule:nonzero;stroke:none"
         id="path18" /><path
         d="m 3116.13,416.762 c -14.06,-51.961 -58.47,-80.121 -126.64,-80.121 -84.45,0 -140.74,56.289 -150.47,143.98 h 402.66 c 1.09,10.828 2.15,27.078 2.15,45.469 0,129.89 -82.27,263.012 -265.16,263.012 -178.63,0 -267.38,-135.313 -267.38,-279.262 0,-142.891 99.61,-283.59 278.2,-283.59 134.22,0 235.94,74.691 256.53,190.512 z m -137.46,272.769 c 78.99,0 126.64,-51.953 132.03,-121.25 h -268.43 c 14.06,82.27 61.68,121.25 136.4,121.25 z"
         style="fill:#32313b;fill-opacity:1;fill-rule:nonzero;stroke:none"
         id="path20" /><path
         d="m 3511.13,226.25 c 127.74,0 211.06,67.109 211.06,169.922 0,246.797 -303.09,116.918 -303.09,234.918 0,36.801 31.41,58.441 79.02,58.441 42.23,0 88.76,-25.98 96.33,-76.871 h 121.25 c -5.43,106.09 -93.08,176.442 -220.82,176.442 -112.58,0 -195.9,-67.114 -195.9,-162.34 0,-230.59 298.72,-114.774 298.72,-235.981 0,-32.461 -34.61,-58.48 -86.57,-58.48 -59.53,0 -99.61,32.5 -105,84.461 h -121.25 c 6.53,-116.922 94.18,-190.512 226.25,-190.512 z"
         style="fill:#32313b;fill-opacity:1;fill-rule:nonzero;stroke:none"
         id="path22" /><path
         d="M 410.98,1160 C 274.301,1160 153.398,1071.29 112.5,940.98 L 0,582.5 112.5,224.059 C 153.398,93.7109 274.301,5 410.98,5 H 714.02 C 850.738,5 971.602,93.7109 1012.5,224.059 L 1125,582.5 1012.5,940.98 C 971.602,1071.29 850.738,1160 714.02,1160 Z m 303.04,-90.12 c 97.308,0 183.32,-63.12 212.46,-155.9 l 27.579,-87.89 c -55.508,45.82 -125.778,71.609 -199.219,71.609 h -385.5 c -72.969,0 -142.781,-25.429 -198.09,-70.668 l 27.301,86.949 c 29.109,92.78 115.121,155.9 212.429,155.9 z M 192.07,719.691 121.988,627.539 h 880.162 l -70.041,92.152 c -42.07,55.387 -107.66,87.887 -177.269,87.93 H 367.23 c -68.789,-0.672 -133.48,-33.09 -175.16,-87.93 z m 809.96,-182.23 -69.921,-92.07 C 890,389.961 824.379,357.379 754.73,357.379 l -385.32,0.043 c -69.609,-0.043 -135.269,32.539 -177.34,87.969 l -69.922,92.07 z M 198.551,251.02 C 227.66,158.238 313.672,95.1211 410.98,95.1211 h 303.04 c 97.308,0 183.32,63.1169 212.429,155.8989 l 27.61,87.929 C 898.551,293.09 828.238,267.27 754.73,267.301 H 369.449 c -73,0 -142.89,25.469 -198.238,70.75 z"
         style="fill:#32313b;fill-opacity:1;fill-rule:evenodd;stroke:none"
         id="path24" /></g></g></svg>
