<?xml version="1.0" encoding="utf-8"?>
<!-- Generator: Adobe Illustrator 19.1.1, SVG Export Plug-In . SVG Version: 6.00 Build 0)  -->
<svg version="1.1" id="Layer_2" xmlns="http://www.w3.org/2000/svg" xmlns:xlink="http://www.w3.org/1999/xlink" x="0px" y="0px"
	 viewBox="-387 250 185 61" style="enable-background:new -387 250 185 61;" xml:space="preserve">
<style type="text/css">
	.st0{fill:#A31E23;}
	.st1{fill:#C2882B;}
	.st2{fill:#050505;}
</style>
<g>
	<g>
		<g>
			<path class="st0" d="M-304.2,308c-0.7,0.7-1.4,1.2-2.1,1.5c-0.7,0.4-1.2,0.5-1.6,0.5c-0.5,0-1-0.1-1.5-0.3
				c-0.5-0.2-1-0.4-1.5-0.7c-0.8-0.6-1.5-1.3-1.9-2.2c-0.5-0.9-0.7-1.8-0.7-2.7c0-1,0.2-1.9,0.7-2.7c0.5-0.9,1.2-1.6,2.1-2.3
				c0.7-0.5,1.4-0.8,2.2-1.1c0.8-0.3,1.5-0.4,2.2-0.4c0.6,0,1.1,0.1,1.5,0.3c0.4,0.2,0.6,0.4,0.6,0.7c0,0.2-0.1,0.3-0.2,0.5
				s-0.5,0.4-1.1,0.8l-0.8,0.5c-0.3-0.4-0.6-0.7-1-0.9c-0.4-0.2-0.8-0.3-1.2-0.3c-0.7,0-1.3,0.3-1.8,0.9c-0.5,0.6-0.7,1.3-0.7,2.3
				c0,0.7,0.1,1.3,0.3,1.9c0.2,0.6,0.6,1.2,1,1.7c0.5,0.6,1.1,1.1,1.8,1.4c0.7,0.3,1.5,0.5,2.2,0.5c0.2,0,0.4,0,0.7-0.1
				c0.2,0,0.5-0.1,0.7-0.2L-304.2,308z"/>
			<path class="st0" d="M-296.3,310.1c-0.6-1.4-1.2-2.4-1.9-3c-0.7-0.6-1.5-0.9-2.5-0.9c-0.4,0-0.7,0.1-0.9,0.2
				c-0.2,0.1-0.3,0.3-0.3,0.5c0,0.4,0.2,0.7,0.7,0.9c0.4,0.3,1,0.4,1.6,0.4c0.2,0,0.4,0,0.6-0.1c0.2,0,0.4-0.1,0.6-0.2l0.2,0.3
				c-0.6,0.6-1.2,1.1-1.8,1.4c-0.5,0.3-1,0.5-1.5,0.5c-0.6,0-1.2-0.2-1.7-0.6c-0.5-0.4-0.7-0.8-0.7-1.3c0-0.7,0.4-1.4,1.3-2
				c0.9-0.6,2-1.1,3.4-1.3c-0.3-0.6-0.6-1-0.9-1.3s-0.7-0.5-1-0.5c-0.1,0-0.2,0-0.3,0c-0.1,0-0.2,0.1-0.3,0.2l-0.2-0.3l1.7-1.3
				c0.3-0.2,0.5-0.3,0.6-0.4c0.1-0.1,0.3-0.1,0.4-0.1c0.5,0,1.1,0.6,1.9,1.8c0.8,1.2,1.9,3.1,3.1,5.5L-296.3,310.1z"/>
			<path class="st0" d="M-292.7,310.1c0-0.2,0-0.5,0-0.7c0-0.3,0-0.7,0-1.2c0-2.1-0.1-3.5-0.2-4s-0.3-0.8-0.6-0.8
				c-0.1,0-0.2,0-0.3,0c-0.1,0-0.2,0.1-0.4,0.1l-0.1-0.4l1.7-1.2c0.4-0.3,0.7-0.5,0.9-0.6c0.2-0.1,0.3-0.1,0.5-0.1
				c0.6,0,0.9,1.5,0.9,4.5c0,1.1,0,2.1,0,2.7L-292.7,310.1z M-291.4,298c0.2,0.4,0.4,0.7,0.7,0.9c0.3,0.2,0.5,0.3,0.8,0.4l-0.6,0.5
				c0,0-0.1,0.1-0.2,0.1c-0.7,0.5-1.2,0.8-1.5,0.8s-0.5-0.1-0.7-0.3c-0.2-0.2-0.4-0.5-0.6-0.8L-291.4,298z"/>
			<path class="st0" d="M-287.6,310.1c0-0.2,0-0.4,0-0.6v-0.1c0-2.5-0.1-4.1-0.2-4.9c-0.1-0.7-0.3-1.1-0.7-1.1c-0.1,0-0.2,0-0.3,0.1
				c-0.1,0-0.2,0.1-0.4,0.2l-0.2-0.4l2.1-1.5c0.3-0.2,0.5-0.3,0.7-0.4c0.2-0.1,0.3-0.1,0.4-0.1c0.3,0,0.4,0.1,0.6,0.4
				c0.1,0.3,0.2,0.7,0.2,1.3c0,0,0,0.1,0,0.2c0,0.1,0,0.2,0,0.3c0.6-0.7,1.1-1.2,1.6-1.6c0.5-0.4,0.9-0.6,1.1-0.6
				c0.3,0,0.5,0.2,0.7,0.5s0.4,0.8,0.6,1.5l-2.1,1.7c-0.1-0.4-0.2-0.8-0.4-1c-0.2-0.2-0.3-0.3-0.5-0.3c-0.3,0-0.6,0.2-0.7,0.5
				c-0.1,0.4-0.2,1.2-0.2,2.6v0.3v1.7L-287.6,310.1z"/>
			<path class="st0" d="M-279.7,303.6c-0.1,0.2-0.3,0.5-0.3,0.7s-0.1,0.5-0.1,0.8c0,0.8,0.2,1.5,0.7,2.1c0.5,0.6,1,1,1.6,1
				c0.4,0,0.7-0.1,0.9-0.4c0.2-0.3,0.3-0.6,0.3-1.1c0-0.4-0.1-0.9-0.3-1.4c-0.2-0.5-0.4-0.9-0.7-1.3c-0.3-0.4-0.6-0.7-1-0.9
				c-0.4-0.2-0.8-0.3-1.2-0.3c-0.2,0-0.3,0-0.5,0c-0.1,0-0.3,0-0.4,0.1l-0.1-0.3c0.7-0.5,1.3-0.9,1.8-1.1s1-0.3,1.4-0.3
				c0.8,0,1.5,0.4,2.2,1.1c0.6,0.7,1,1.6,1,2.6c0,0.5-0.1,1.1-0.4,1.6c-0.2,0.5-0.6,1-1.1,1.6c-0.6,0.7-1.2,1.1-1.7,1.5
				c-0.5,0.3-1.1,0.5-1.5,0.5c-0.8,0-1.5-0.4-2.1-1.1s-1-1.5-1-2.4c0-0.5,0.2-1.1,0.5-1.5c0.3-0.5,1-1,1.9-1.7L-279.7,303.6z"/>
		</g>
		<g>
			<path class="st1" d="M-360.7,275.2c1.4-7.4,2.8-14.8,4.2-22.2c4.1,0,8.1-0.1,12.1,0.1c0,0.5-0.1,0.5-0.6,0.5
				c-0.3,0-0.7-0.1-1.1,0c0.7,0.3,1.5,0.5,2.3,0.8c-0.2,0.2-0.5,0.5-0.8,0.8c0.7-0.3,1.4-0.6,2.1-1c-0.3-0.1-0.4-0.2-0.7-0.3
				c0.4-0.2,0.8-0.5,1.1-0.5c1.7,0,3.5,2,3.4,3.7c-0.3,0-0.7,0-1,0c0,0.1,0,0.2-0.1,0.3c0.4,0.1,0.7,0.2,1.1,0.3
				c-0.3,1,0.4,2.6-1.7,2.6c0.3,0.1,0.6,0.1,0.9,0.2c-0.8,1.5-2,2.3-3.3,2.9c0.8,0.7,1.9,1.3,2.5,2.1c0.5,0.8,1,1.9,0.5,3.2
				c-0.5-0.1-1.1-0.3-1.7-0.4c0,0.1-0.1,0.1-0.1,0.2c0.5,0.3,1.1,0.6,1.7,0.9c-0.2,1.2-0.8,2.2-1.7,3.1c-0.1,0.1-0.3,0.1-0.4,0.1
				c-1.7,0.2-3.3,0.8-4.6,1.9c-0.4,0.3-0.9,0.6-1.4,0.6c-0.8,0.1-1.7-0.1-2.5-0.1c-0.2,0-0.4,0.2-0.7,0.2
				C-354.3,275.2-357.4,275.2-360.7,275.2C-360.4,275.3-360.5,275.3-360.7,275.2z M-353.7,270.2c1.4,0.2,2.7,0.3,4.1,0.5
				c-0.3-0.2-0.5-0.2-0.7-0.3c0.9-0.1,1.9-0.1,2.7-0.3c1.2-0.3,2-1.3,1.9-2.4c0-0.2,0.1-0.5,0.1-0.7c-2.3-1.4-4.9-0.6-7.5-0.8
				C-353.2,267.6-353.5,268.9-353.7,270.2z M-352.1,261.9c0.9,0,1.6-0.1,2.4,0c0.8,0.1,1.5,0.3,2.3,0.5c-0.2-0.1-0.4-0.3-0.5-0.4
				c0.7-0.3,1.4-0.4,2.1-0.8c0.7-0.4,1-1.4,0.9-2c-0.2-0.8-0.8-1.1-1.5-1.1c-1.5-0.1-3-0.1-4.5-0.1c-0.1,0-0.4,0.2-0.4,0.3
				C-351.7,259.5-351.9,260.7-352.1,261.9z M-341.6,271.4c-0.9-0.8-1.9-1-3-1c0,0.1,0,0.2-0.1,0.3c0.4,0.1,0.8,0.2,1.2,0.3
				C-343.3,271.6-342.8,271.7-341.6,271.4z M-353,256.3c0.1,0.3,1.8,0.7,2.7,0.6c-0.1-0.2-0.2-0.4-0.4-0.4
				C-351.4,256.4-352.2,256.3-353,256.3z M-340.5,265.8c-0.7,0.1-1.3,0.1-2,0.2C-341.4,266.6-340.6,266.5-340.5,265.8z
				 M-351.9,258.9c-0.7-0.2-1.2-0.4-1.8-0.6C-353.2,259.1-352.8,259.3-351.9,258.9z M-351.8,254.6c0,0.1,0,0.2-0.1,0.3
				c0.7,0.1,1.4,0.3,2.2,0.4c0-0.1,0-0.2,0.1-0.2C-350.3,254.9-351.1,254.7-351.8,254.6z M-350,255.6c0,0.1,0,0.2,0,0.2
				c0.4,0.1,0.7,0.9,1.3,0C-349.2,255.7-349.6,255.7-350,255.6z"/>
			<path class="st1" d="M-250.9,291.6c0.7,0,1.4,0,2.1,0v-0.1c-0.5-0.1-0.9-0.2-1.4-0.3c1.1-1.1,2.2-2.2,3.2-3.3
				c0.9,0.6,1.7,1.2,2.6,1.6c1.5,0.8,3.2,1.1,4.9,0.9c0.4,0,0.9-0.2,1.3-0.4c0.6-0.3,1-0.8,0.8-1.4c-0.1-0.4-0.5-0.9-0.9-1.1
				c-1.4-0.5-2.8-0.8-4.2-1.3c-1.1-0.4-2.1-0.7-3.1-1.3c-1.8-1-2.6-2.7-2.2-4.7c0.5-3,2.1-5.3,5-6.4c0.5-0.2,1-0.2,1.5-0.4
				c2.9-1.1,7-0.9,9.8,0.6c0.5,0.3,0.9,0.6,1.4,0.9c0.3,0.2,0.5,0.4,0.8,0.7c-1.2,1.3-2.3,2.6-3.3,3.7c-2.1-0.5-4.1-1.2-6.1-1.5
				c-0.8-0.1-1.7,0.3-2.7,0.6c-0.5,0-1.2-0.1-1.9-0.1c0,0.1,0,0.1,0,0.2c0.6,0.1,1.3,0.3,1.9,0.4c-0.1,1.4,0.1,1.7,1.4,2.1
				c1.4,0.5,2.9,0.8,4.4,1.2c0.7,0.2,1.4,0.5,2.1,0.8c-0.2,0.3-0.3,0.5-0.4,0.7c-0.8-0.2-1.7-0.4-2.6-0.6c-0.1,0.1-0.2,0.3-0.4,0.6
				c0.7,0.2,1.4,0.4,2.1,0.7c0-0.1,0.1-0.2,0.1-0.3c-0.5-0.2-1-0.3-1.6-0.5c0-0.1,0-0.1,0.1-0.2c1.5,0.4,3,0.8,4.6,1.2
				c0,0.1,0,0.1,0,0.2c-0.8-0.2-1.6-0.3-2.3-0.5c0,0.1,0,0.1,0,0.2c0.5,0.1,0.9,0.4,1.4,0.4c1.6,0.3,2,1,1.7,2.6
				c-0.4,0.1-1-0.6-1.4,0.4c0.4,0.1,0.9,0.3,1.4,0.5c-0.3,1.6-0.9,3-2,4.2c-1.2,1.4-2.8,2.2-4.5,2.7c-2.2,0.6-4.5,0.7-6.8,0.2
				c-0.2,0-0.4-0.2-0.6-0.3c-0.2-0.1-0.3-0.2-0.5-0.2c-2.4,0-4-1.4-5.6-2.8C-250.9,291.8-250.9,291.7-250.9,291.6z M-244,290.9
				c1.1,0.4,2.3,0.7,3.4,0.3C-241.6,291.1-242.9,291-244,290.9z M-243.1,279.7c0-0.1,0.1-0.2,0.1-0.3c-0.8-0.2-1.6-0.5-2.4-0.7
				c0,0.1-0.1,0.2-0.1,0.3C-244.8,279.2-244,279.4-243.1,279.7z M-241.4,281.1c1,0.8,1.7,0.9,2.2,0.5
				C-239.9,281.4-240.6,281.2-241.4,281.1z M-238.6,292.5c0-0.1,0-0.1,0-0.2c-0.5-0.2-0.9-0.4-1.3-0.6c-0.1,0.1-0.2,0.3-0.3,0.4
				C-239.6,292.3-239.1,292.4-238.6,292.5z"/>
			<path class="st1" d="M-321.9,279c0.2,0.1,0.3,0.4,0.6,0.4c2.1,0.5,4.3,1,6.4,1.6c-0.1,0-0.2,0.1-0.2,0.1c1.5,0.3,3.1,0.6,4.9,1
				c-0.3,0.2-0.4,0.3-0.4,0.4c1.6,0.2,2.2,0.5,3.1,1.5c-0.8-0.1-1.5-0.2-2.2-0.3c0,0.1,0,0.2-0.1,0.3c0.7,0.2,1.5,0.4,2.2,0.6
				c0.9,0.2,1.6,1.4,1.3,2.3c0,0.1,0.1,0.3,0,0.4c-0.2,0.2-0.4,0.4-0.6,0.5c0.1,0.1,0.3,0.2,0.7,0.3c-0.3,0.9-0.6,1.7-0.8,2.6
				c-0.5-0.1-0.9-0.2-1.3-0.3v0.1c0.3,0.1,0.7,0.3,1.2,0.5c-0.7,0.8-1.4,1.6-2.1,2.3c-0.1,0.1-0.4,0-0.6,0c-0.6-0.2-1.2-0.4-1.9-0.6
				c0.2,1.3,1.2,0.7,2.1,1c-2.2,1.3-4.3,2.4-6.8,1c0,0.1,0,0.2,0,0.3c0.4,0.1,0.8,0.3,1.2,0.4c0,0.1,0,0.2,0,0.3
				c-1.1-0.1-2.3,0-3.4-0.2c-1-0.2-2-0.6-3.1-1c0.7,0,1.4,0,2,0c-1.1-0.2-2-1.2-3.4-0.5c0.2,0.1,0.4,0.2,0.5,0.3
				c-0.1,0.1-0.1,0.1-0.2,0.2c-1.4-0.4-2.4-1.5-3.5-2.2c1.1-1.8,2-3.5,3.1-5.2c2.6,3.1,6.1,4.2,10.2,3.4c0,0-0.1-0.1-0.2-0.1
				s-0.2-0.1-0.3-0.1c1.1-1.3,1-2.1-0.6-2.7c-1.5-0.5-3-0.8-4.4-1.3c-1.5-0.5-3-1.1-4-2.5c0.2,0,0.3-0.1,0.6-0.1
				c-1-0.3-1.4-1.1-1.3-2.5c0-0.4,0.1-0.7,0.1-1.1C-323.1,279-322.7,278.8-321.9,279L-321.9,279z M-307.2,287.4
				c-0.9-0.6-8.4-2.3-9.2-2c0.6,0.2,1.2,0.3,1.7,0.4c1.6,0.4,3.1,0.7,4.7,1.1c0.5,0.1,1.1,0.2,1.5,0.5
				C-308,287.8-307.7,287.7-307.2,287.4z M-316.5,291.6c0-0.1,0-0.2,0.1-0.2c-1.2-0.3-2.3-0.6-3.5-0.9c0,0.1,0,0.1,0,0.2
				C-318.8,290.9-317.7,291.3-316.5,291.6z M-312.3,282.5c0-0.1,0-0.2,0-0.3c-0.8-0.1-1.6-0.3-2.4-0.4c0,0.1,0,0.2,0,0.3
				C-313.9,282.3-313.1,282.4-312.3,282.5z M-314.5,294.7c0-0.1,0.1-0.1,0.1-0.2c-0.6-0.3-1.1-0.6-1.7-0.9
				C-316,294.1-315.3,294.5-314.5,294.7z"/>
			<path class="st1" d="M-290.1,273.1c3.6-0.4,6.9,1.4,10.3,1.8c-2.2-0.6-4.4-1.2-6.7-1.9c0-0.1,0-0.1,0-0.2
				c1.6,0.1,3.2,0.2,4.9,0.3c0.1,0,0.3,0.1,0.4,0.1c0.8-0.2,1.2-0.2,1.6-0.1c1.2,0.4,2.3,0.8,3.5,1.2c1,0.4,1.8,1.2,2.6,2.2
				c-1.5-0.4-2.9-0.7-4.2-1.1c-0.2,0-0.3-0.3-0.5-0.4c-0.4-0.1-0.9,0-1.4,0c0,0.1,0,0.1,0,0.2c1.4,0.4,2.8,0.8,4.2,1.2
				c0.7,0.2,1.4,0.3,2.1,0.5c0.1,0,0.3,0.2,0.4,0.4c1,1.8,1.2,3.7,0.9,5.8c-0.8-0.2-1.5-0.3-2.3-0.5c0,0,0,0.1-0.1,0.1
				c0.7,0.3,1.4,0.6,2.2,0.9c0,0.1-0.1,0.3-0.1,0.6c-2-0.5-4-1-6-1.5c0-0.3-0.1-0.6-0.1-1c0.9,0.2,1.7,0.3,2.5,0.5v-0.1
				c-0.6-0.2-1.1-0.3-1.7-0.5c-0.4-0.1-0.9,0-1-0.6c-0.1-0.3-0.1-0.7-0.4-1c-1-1-2.1-1.7-3.6-1.8c-1.3-0.1-2.7,0-3.8,0
				c0.5,0.8-0.1,1.6,0,2.6c-2.1-0.5-4-1-5.9-1.5c0.4-2.2,0.8-4.2,1.2-6.3c0.9,0.1,1.6,0.3,2.4,0.4v-0.1
				C-289.2,273.4-289.6,273.3-290.1,273.1z M-286.6,278.9c-0.7-0.2-1.2-0.4-1.6-0.6v-0.1c0.4,0.1,0.8,0.1,1.1,0.2v-0.1
				c-0.9-0.2-1.7-0.4-2.6-0.7C-288.7,278.1-288,279.1-286.6,278.9z M-279.8,278.9c0-0.1,0.1-0.2,0.1-0.3c-1-0.3-2-0.6-3-1
				c0,0.1,0,0.2-0.1,0.2C-281.8,278.2-280.8,278.6-279.8,278.9z"/>
			<path class="st1" d="M-269.8,283.8c0.4-1.9,0.7-3.7,1.1-5.6c2,0.5,3.8,1,5.8,1.5c-0.1,0.6-0.2,1.2-0.3,1.8
				c3.5,0.3,7-0.3,10.5,0.4c-0.2,1-0.4,1.9-0.5,2.7c-1.1-0.3-2.2-0.5-3.3-0.8c0,0.1,0,0.2-0.1,0.3c0.3,0,0.6,0.1,0.9,0.2
				c0.6,0.1,1.2,0.2,1.8,0.4c0.2,0.1,0.4,0.5,0.4,0.8s-0.1,0.6-0.2,1c-0.3,0-0.5,0-0.8,0c-3,0-5.9-0.1-8.9,0
				c-2.4,0.1-4.4-0.9-6.7-1.3c0-0.4,0.1-0.7,0.1-1c1,0.2,1.9,0.5,2.9,0.7c-0.1-0.8-0.1-0.7-0.8-0.6
				C-268.4,284.2-269,284-269.8,283.8z"/>
			<path class="st1" d="M-250,273.1c-0.1,0.5-0.2,1-0.3,1.6c-0.5-0.1-0.9-0.3-1.3-0.4c0,0,0,0.1-0.1,0.1c0.4,0.2,0.9,0.4,1.3,0.6
				c-0.3,0.5,0.2,1.4-0.8,1.6c0.7,0.5,0.1,1,0.1,1.6c-2.4,0.1-4.8,0.1-7.1-0.6c-1.6-0.5-3.2-0.7-4.8-1c0,0.3,0.1,0.5,0.1,0.5
				c0.5,0,0.9,0,1.3,0c0.5,0.1,1,0.2,1.6,0.3c0.3,0.1,0.7,0,0.8,0.5c0,0.1,0.5,0,0.8,0.1c0.2,0,0.4,0.1,0.6,0.1c0,0.1,0,0.2,0,0.2
				c-1.6,0-3.3,0-4.9,0c-0.1,0.4-0.2,0.7-0.3,1c-1.9-0.4-3.8-0.8-5.8-1.3c0.1-0.4,0.1-0.7,0.2-1.1c2.3,0.4,4.6,0.8,6.8,1.2
				c0-0.1,0-0.1,0-0.2c-1-0.2-2.1-0.4-3.1-0.8c-0.9-0.4-2-0.1-2.9-0.5c-0.3-0.1-0.5-0.3-0.8-0.5c0-0.1,0.1-0.1,0.1-0.2
				c0.6,0.2,1.1,0.3,1.7,0.5c0-0.1,0.1-0.1,0.1-0.2c-0.6-0.2-1.1-0.5-1.8-0.7c0.1-0.7,0.3-1.5,0.4-2.3
				C-261.8,273.1-256,273.1-250,273.1z M-252,276.5c0-0.1,0-0.1,0.1-0.2c-0.9-0.2-1.8-0.4-2.7-0.6c0,0.1,0,0.1,0,0.2
				C-253.8,276.1-252.9,276.3-252,276.5z"/>
			<path class="st1" d="M-303.3,283.5c0.6-3.5,1.3-6.8,1.9-10.2c0.5,0.1,1,0.1,1.5,0.2v-0.1c-0.1-0.1-0.2-0.1-0.4-0.2
				c1.7,0,3.3,0,5,0c-0.1,0.6-0.2,1.2-0.3,1.8c-0.3,0-0.6-0.1-0.8-0.1v0.1c0.2,0.1,0.5,0.2,0.8,0.3c-0.4,1.9-0.7,3.8-1.1,5.8
				c-0.6-0.2-1.4,0-1.6-0.9c-0.1,0.2-0.2,0.3-0.2,0.5c-1-0.2-2-0.4-2.9-0.6c0,0.1,0,0.2,0,0.2c1.6,0.3,3.1,0.7,4.9,1
				c-0.4,0.6,0.2,1.6-1,1.7c0.5,0.4,0.5,1.3,0.1,1.8c-0.1,0.1-0.3,0.2-0.4,0.2C-299.7,284.5-301.4,284-303.3,283.5z"/>
			<path class="st1" d="M-269.9,288.8c1.6,1.1,3.4,1.4,5.3,1.7c0.8,0.1,1.6,0.4,2.4,0.6c0.6,0.2,1.2,0.4,1.7,0.6
				c0.1,0,0.2,0.1,0.2,0c2.4-0.7,4.4,0.6,6.7,0.9c-0.1,0.8-0.2,1.4-0.3,2.1c0,0.2-0.4,0.4-0.5,0.4c-1.3-0.1-2.6,0.3-3.8-0.3
				c-0.1-0.1-0.4,0.1-0.6,0.2c-0.2,0.1-0.4,0.1-0.6,0.1c-1.5,0-2.9,0-4.4,0c-1.7,0-3.4,0-5.1,0c-0.4,0-0.8-0.2-1.2-0.3
				c-0.4,0-0.8,0-1.2,0.1c-0.1,0.1-0.3,0.2-0.6,0.3c0.3-1.7,0.6-3.2,0.9-4.7c0.9,0.2,1.7,0.5,2.7,0.7c-0.2-0.2-0.2-0.3-0.4-0.5
				c3.4,0.8,6.7,1.6,10,2.3c0-0.1,0.1-0.2,0.1-0.3c-4-1-8.1-1.9-12.2-2.9c0.1-0.4,0.1-0.7,0.2-1.1
				C-270.4,288.7-270.1,288.8-269.9,288.8L-269.9,288.8z"/>
			<path class="st1" d="M-294.4,289.8c0.3-0.7,0.5-1.4,0.8-2.1c-0.6-0.2-0.1-0.7-0.1-1.3c2,0.5,3.9,0.9,5.9,1.3
				c-0.1,0.6-0.2,1.2-0.3,1.8c2.6,0.1,5.1,0.2,7.3-1.5c0.3-0.3,1.1-0.2,1.6-0.1c1.4,0.3,2.9,0.6,4.3,1c0.1,0,0.3,0.1,0.7,0.2
				c-1,1-1.8,1.8-2.7,2.7c-0.5,0.4-1,0.7-1.6,1.1c-0.2,0.1-0.6,0.3-0.8,0.2c-1.2-0.2-2.4-0.4-3.6-0.6c-3.3-0.8-6.6-1.6-9.9-2.4
				C-293.3,290.1-293.7,290-294.4,289.8z"/>
			<path class="st1" d="M-321.9,279c-0.3-0.2-0.5-0.4-0.8-0.6c0.3-0.5,0.5-1,0.8-1.6c0.8,0.4,1.5,0.7,2.2,1l0.1-0.1
				c-0.5-0.4-0.9-0.7-1.2-0.9c1-0.3,2.1-0.7,3.4-0.9c0.5-0.1,1.1,0.2,1.7,0.3c0.4,0.1,0.7,0.2,1.1,0.3c0-0.1,0-0.1,0.1-0.2
				c-0.7-0.3-1.4-0.5-2.2-0.8c0.4-0.5,0.8-0.7,1.5-0.5c0.9,0.3,1.8,0.5,2.7,0.7c0-0.1,0-0.1,0.1-0.2c-1-0.3-1.9-0.6-3-1
				c0.5-0.6,0.9-1.2,1.3-1.7c0.1-0.1,0.3-0.2,0.4-0.2c2.8-0.1,5.5,0.4,7.9,2c-0.3,0.5-0.2,1.2-0.9,1.2c0,0.3,0,0.6-0.1,0.9
				c-0.6,1-1.3,1.9-2,2.9c-2.5-1.4-5-2.6-7.6-3.4c0,0.1-0.1,0.1-0.1,0.2c0.8,0.3,1.6,0.6,2.4,0.9c-1,0.7-2.6,0.4-2.8,2.1
				c-0.3,0-0.6,0-1,0c0.5,0.2,0.9,0.4,1.2,0.6c0,0.1,0,0.1-0.1,0.2c-0.7-0.2-1.3-0.4-2-0.5C-319.8,279.4-320.9,279.2-321.9,279
				L-321.9,279z"/>
			<path class="st1" d="M-294.3,290.1c2.6,0.6,5,1.2,7.5,1.8c0.6,0.1,1.2,0.2,1.8,0.4c0.4,0.1,0.8,0.5,1.2,0.6
				c1,0.2,1.9,0.4,2.9,0.6c0.2,0,0.4,0.1,0.7,0.3c-1.1,0.6-2,0.8-3.1,0.4c0.1,0.2,0.1,0.3,0.2,0.6c-1.1,0.1-2.2,0.2-3.2,0.3
				c-1.4,0-2.8-0.3-4.2-0.1c-1.5,0.2-2.8,0-4.2-0.4c-0.1,0-0.2-0.1-0.4-0.1C-294.9,293-294.6,291.6-294.3,290.1z M-288.5,292.9
				c0,0.1,0,0.2-0.1,0.3c0.7,0.2,1.4,0.4,2.2,0.6c0-0.1,0-0.1,0.1-0.2C-287.1,293.3-287.8,293.1-288.5,292.9z"/>
			<path class="st1" d="M-304.9,292.1c0.3-1.5,0.6-2.9,0.8-4.3c2,0.5,3.9,0.9,5.8,1.3c0.1,1.3-0.6,4.1-1.1,4.3
				c0.7,0.4,0.3,0.9,0.2,1.3c0,0.2-0.5,0.3-0.7,0.3c-1.6,0-3.1,0-4.7,0c-0.2,0-0.4,0-0.8-0.1c0.2-0.8,0.3-1.6,0.5-2.5
				c1.5,0.4,2.9,0.8,4.3,1.2c0-0.1,0-0.1,0.1-0.2C-301.9,292.7-303.5,292.7-304.9,292.1z"/>
			<path class="st1" d="M-292.2,279.9c1.4,0.4,2.9,0.7,4.5,1.2c0.4,0.1,0.6,0.6,0.9,0.9c0.1,0,0.2,0,0.3,0c-0.2,0.5-0.5,1-0.6,1.6
				c-0.1,0.6-0.1,1.3-0.1,1.9c-0.1,0.6-0.2,1.3-0.4,2c-2.1-0.2-4-0.8-5.7-1.7c0.1-0.8,0.2-1.6,0.4-2.4c1.7,0.4,3.3,0.8,4.9,1.2
				c0-0.1,0-0.1,0.1-0.2c-1.4-0.4-2.9-0.7-4.3-1.1c-0.2-0.1-0.4-0.2-0.6-0.3c0-0.1,0.1-0.2,0.1-0.3c1.7,0.5,3.5,0.9,5.2,1.4
				c0-0.1,0-0.1,0.1-0.2c-1.7-0.5-3.4-1-5.3-1.5C-292.6,281.4-292.4,280.6-292.2,279.9z"/>
			<path class="st1" d="M-272.2,284.8c-0.6,1-0.3,2.3-1.5,2.7c0,0.3-0.1,0.6-0.1,0.9c-0.1,0.5-0.5,0.3-0.8,0.2
				c-1.6-0.3-3.1-0.6-4.7-0.9c-0.2,0-0.5-0.1-0.7-0.2c0.5-1,1.1-2,1.7-3.2c0.6,0.1,1.4,0.3,2.1,0.5v-0.1c-0.5-0.2-1-0.3-1.4-0.5
				c-0.2-0.1-0.4-0.3-0.6-0.4c-0.1-0.1-0.1-0.3-0.1-0.3c0.1-0.1,0.3-0.2,0.4-0.1C-276.1,283.8-274.3,284.3-272.2,284.8z"/>
			<path class="st1" d="M-297.3,285.5c-0.3,0.4-0.5,0.6-0.7,0.9c0.7,0.7-0.2,1.5-0.1,2.5c-2-0.5-4-1-6-1.4c0.1-0.8,0.3-1.5,0.4-2.3
				c1.6,0.4,3.2,0.8,4.8,1.2c0-0.1,0-0.2,0.1-0.3c-1.6-0.4-3.2-0.8-4.8-1.2c0.1-0.3,0.1-0.6,0.2-0.9
				C-301.4,284.5-299.4,285-297.3,285.5z"/>
			<path class="st1" d="M-269.9,288.8c-0.2-0.2-0.4-0.3-0.7-0.6c0.2-0.9,0.3-1.8,0.5-2.8c2,0.5,3.8,1,5.8,1.5
				c-0.2,0.9-0.4,1.9-0.5,2.7C-266.6,289.4-268.2,289.1-269.9,288.8L-269.9,288.8z"/>
			<path class="st1" d="M-263.3,289.9c3.4,0,6.8,0,10.3,0c-0.1,0.8-0.3,1.6-0.4,2.5c-1.3-0.4-2.5-0.8-3.8-1.2
				c-0.3-0.9-1.1-0.9-1.7-1.1c-0.1-0.1-0.3-0.1-0.5,0.1c0.5,0.2,0.9,0.4,1.5,0.7c0,0.1-0.1,0.3-0.1,0.5c-1.8-0.4-3.5-0.9-5.2-1.3
				C-263.3,290.1-263.3,290-263.3,289.9z"/>
			<path class="st1" d="M-233.1,283c0.4,0.3,0.7,0.5,1,0.8c0,0.1,0,0.1-0.1,0.2c-0.4-0.1-0.8-0.2-1.2-0.3
				C-233.3,283.5-233.3,283.3-233.1,283z"/>
		</g>
		<g>
			<path class="st2" d="M-330.1,269.8c0.7,0.4,1.8,0.2,1.6,1.4c-0.2,0-0.5,0-0.6,0c0.6,0.8,1.3,1.6,2,2.4c0.5,0.5,1,1,1.5,1.6
				c-0.7-0.1-1.4-0.2-2.2-0.3c0.9,0.4,1.7,0.9,2.5,1.2c0.6,0.2,0.8,0.6,0.7,1.2c-0.3,0-0.5,0-1-0.1c0.5,0.3,0.9,0.5,1.2,0.7
				c0,0.1-0.1,0.2-0.1,0.3c-0.5-0.1-1-0.3-1.5-0.4c-2.2-0.6-4.5-1.1-6.7-1.7c-0.4-0.1-0.8-0.2-0.9-0.8c0-0.1,0-0.1-0.1-0.2
				c-0.1,0-0.2,0-0.2-0.1c-0.1-0.2-0.1-0.3-0.2-0.6c-1.1-0.6-2.4-1.4-3.8-2.2c0.4-1.4,0.9-3,1.3-4.4c1.2,0.2,2.5,0.2,3.6,0.7
				c0.7,0.4,1.5,0.5,2.2,0.7c0.3,0.1,0.5,0.1,0.8,0.1c0-0.1,0-0.2,0-0.2c-0.8-0.2-1.6-0.4-2.4-0.6l0.1-0.1c-0.1-0.2-0.2-0.4-0.4-0.4
				c-0.6-0.1-1.2-0.1-1.8-0.2c-0.7-0.1-1.4-0.2-2-0.3c0.2-0.7,0.4-1.4,0.5-2.1c1.6,0.1,3.1,1.3,5,0.8c-1.7-0.4-3.3-0.8-4.8-1.1
				c0.2-0.6,0.3-1.1,0.5-1.6c0.3,0,0.6,0,0.9,0v-0.1c-0.3-0.1-0.5-0.1-0.8-0.2c0-0.6,0.2-0.6,0.6-0.4c-0.1-0.3-0.2-0.5-0.3-0.8
				c0.3,0,0.5-0.1,0.8-0.1c0.4,0,0.7,0,1.1,0c0-0.1,0-0.1,0-0.2c-0.5,0-1.1-0.1-1.6-0.1c-0.1-0.1-0.1-0.1-0.2-0.2
				c0.5-0.7,1-1.3,1.4-2c0.6-1.3,1.5-0.3,2.2-0.2s1.4,0.4,2.1,0.5c0-0.1,0.1-0.2,0.1-0.3c-0.4-0.1-0.7-0.2-1.1-0.2
				c0.4-0.4,0.3-0.5-0.6-1c-0.5,0.5-1.1,0.5-1.9,0c0.4-0.4,0.8-0.9,1.1-1.3c0.4,0.1,0.8,0.2,1.1,0.3c0,0,0-0.1,0.1-0.1
				c-0.3-0.1-0.5-0.3-0.9-0.5c1.1-0.8,2-1.5,3-2.2c0.1-0.1,0.4,0,0.6,0c0.6,0.1,1.1,0.3,1.7,0.5c0-0.1,0-0.1,0.1-0.2
				c-0.5-0.2-1-0.5-1.5-0.7c0.8-0.7,1.6-0.7,2.5-0.4c0.7,0.2,1.4,0.5,2.1,0.7c-0.8-0.4-1.7-0.8-2.5-1.2V253c1,0.2,1.9,0.6,2.9,0.6
				c1.4,0,2.5,0.7,3.8,0.9c1.4,0.2,2.7,0.5,4,0.8c0.4,0.1,0.8,0.4,1.2,0.5c0.4,0.1,0.9,0.1,1.3,0.1c0.6,0,1.1,0,1.5,0.5
				c0.2,0.2,0.6,0.2,0.9,0.3c0.4,0.2,1,0.4,1.3,0.7c0.9,1.2,1.8,2.5,2.7,3.7c-0.1,0.1-0.1,0.1-0.2,0.2c-0.9-0.2-1.8-0.4-2.8-0.6
				c0,0.1,0,0.2-0.1,0.2c0.2,0.1,0.5,0.2,0.7,0.3c0.7,0.2,1.4,0.4,2.1,0.6c0.3,0.1,0.4,0.4,0.8,0.7c-0.5,0-0.8,0-1.1,0
				c0,0.1,0,0.1,0,0.1c1.6,0.1,1.3,1.5,1.6,2.4c0.1,0.2,0.1,0.4,0.1,0.7c-0.2,0-0.3,0.1-0.5,0.1v0.1c1.2,0.8,0.3,2,0.7,3.1
				c-2.4-0.6-4.7-1.1-6.9-1.6c0,0.1-0.1,0.2-0.1,0.3c0.6,0.2,1.3,0.4,1.9,0.5c1.4,0.3,2.8,0.5,4.2,0.9c0.7,0.2,0.8,0.4,0.5,1.5
				c-2.5-0.4-5-0.9-7.5-1.3c0-0.9,0-1.9,0-2.9c0.9,0.2,1.8,0.5,2.6,0.7c-0.1,1.3,0.9,0.1,1.3,0.3c-0.2-0.1-0.4-0.2-0.5-0.4v-0.1
				c0.3,0,0.7,0.1,1,0.1c0-0.1,0-0.1,0-0.2c-1.4-0.3-2.9-0.6-4.3-0.9c0-0.1,0-0.1,0-0.2c0.5,0,0.9,0,1.4,0.1v-0.1
				c-0.4-0.1-0.9-0.2-1.3-0.2s-0.7-0.2-0.7-0.6c-0.2-1.1-0.9-2-1.6-2.7c-2.2-2-4.9-3.1-8-2.2c-0.3,0.1-0.6,0.1-0.9,0
				c-1-0.2-2.1-0.4-3.1-0.6c-0.5-0.1-1.1-0.4-1.6-0.5c-0.2-0.1-0.5-0.1-0.7-0.1c0,0.1,0,0.1,0,0.2c1.7,0.4,3.4,0.9,5.3,1.3
				c-0.6,0.3-1,0.6-1.5,0.9c-0.1,0.1-0.3,0-0.4,0c-2.5-0.6-4.9-1.3-7.4-1.9c0,0.1-0.1,0.2-0.1,0.4c2.5,0.6,4.9,1.2,7.4,1.9
				c-0.4,1.2-1.3,0.5-2,0.6c-0.2,0-0.4-0.1-0.6,0c0.5,0.2,1,0.4,1.5,0.6c0,0.1,0.1,0.1,0.1,0.2c-0.4,0.2-0.8,0.4-1.3,0.6
				c0.1,0,0.2,0.1,0.4,0.2c-1.2,1.7-1.7,3.6-1.5,5.7C-329.1,269.8-329.5,269.8-330.1,269.8z"/>
			<path class="st2" d="M-325.1,285.3c-0.9,2.6-2.3,4.9-4.3,6.7c-0.6,0.6-1.4,1-2,1.6c-1,0.9-2.2,0.9-3.4,0.5c-1-0.3-2-0.7-3-1
				c-0.6-0.2-1.2-0.2-1.8-0.2c0,0,0.1-0.1,0.2-0.2c0-0.1,0-0.1,0-0.2c-0.4,0-0.8,0.1-1.1,0.1c-0.5,0-0.9,0-1.4,0.1
				c0.4,0.1,0.7,0.2,1.1,0.1c0.7-0.2,1.2,0.3,1.7,0.5c0.2,0.1,0.5,0.2,0.8,0.3c1.3,0.4,2.7,0.8,4,1.2c-3.9,1.8-10.3,1.8-15.5-2.1
				c-5.4-4.2-6.8-10.8-5.8-15c2.4,0,4.9,0,7.3,0c-0.2,1.1-0.5,2.2-0.5,3.2c0,1.1,0.2,2.1,0.4,3.2c-0.4-0.2-0.9-0.4-1.4-0.6
				c0,0.1-0.1,0.2-0.1,0.2c0.3,0.2,0.7,0.3,1,0.6c0.5,0.4,1.1,0.7,1.5,1.2c2.2,3.2,6.3,4.5,9.9,3c0.3-0.1,0.7-0.1,1-0.2
				c0-0.1,0.1-0.3,0.2-0.4c2.3-1.6,3.7-3.8,4.4-6.8c0.6,0.3,1.1,0.6,1.7,0.8c0.4,0.2,0.9,0.2,1.3,0.3c1,0.2,2.1,0.2,2.9,0.6
				c0.5,0.3,0.9,0.4,1.5,0.4c-0.1,0.5-0.2,1-0.3,1.4c-0.7,0.2-1.3-0.7-2.1-0.1C-326.4,285-325.8,285.1-325.1,285.3z"/>
			<path class="st2" d="M-340.1,284.3c-1.8,0-3.2-1.4-3.2-3.2c0-1.8,1.5-3.2,3.2-3.2c1.8,0,3.3,1.5,3.3,3.2
				C-336.8,282.9-338.3,284.3-340.1,284.3z"/>
			<path class="st2" d="M-317,268.4c0,1.8-1.4,3.3-3.2,3.3c-1.8,0-3.3-1.5-3.2-3.2c0-1.8,1.4-3.2,3.2-3.2
				C-318.5,265.2-317,266.6-317,268.4z"/>
			<path class="st2" d="M-332.4,277.4c0.7,0.2,1.4,0.3,2.1,0.5c0-0.1,0-0.1,0.1-0.2c-0.4-0.2-0.8-0.4-1.2-0.6
				c1.3-0.4,2.4,0.6,3.6,0.8c1.2,0.2,2.3,0.6,3.5,0.9c-0.2,0.2-0.4,0.3-0.6,0.5c0.7,0.2,0.8,0.6,0.7,1.2c-0.1,0.8-0.1,1.6-0.2,2.5
				c-0.9-0.3-1.7-0.5-2.5-0.7c-0.7-0.2-1.5-0.4-2.2-0.6c-0.8-0.2-1.7-0.4-2.5-0.7c-0.2-0.1-0.4-0.3-0.4-0.4
				C-332.2,279.6-332.3,278.6-332.4,277.4z"/>
			<path class="st2" d="M-324,252.7c1.3-0.3,2.4-0.6,3.6-0.2c0.9,0.3,1.9,0.3,2.9,0.6c1.9,0.5,3.8,0.9,5.7,1.5
				c0.6,0.2,1.2,0.7,1.8,1c0,0.1-0.1,0.2-0.1,0.3C-314.7,254.8-319.3,253.8-324,252.7z"/>
			<path class="st2" d="M-319.8,252.2c2.2,0,4.3,0.4,6.2,1.4C-315.7,253.1-317.8,252.7-319.8,252.2z"/>
		</g>
		<g>
			<path class="st1" d="M-329.6,268.5c0.7,0.4,1.8,0.2,1.6,1.4c-0.2,0-0.5,0-0.6,0c0.6,0.8,1.3,1.6,2,2.4c0.5,0.5,1,1,1.5,1.6
				c-0.7-0.1-1.4-0.2-2.2-0.3c0.9,0.4,1.7,0.9,2.5,1.2c0.6,0.2,0.8,0.6,0.7,1.2c-0.3,0-0.5,0-1-0.1c0.5,0.3,0.9,0.5,1.2,0.7
				c0,0.1-0.1,0.2-0.1,0.3c-0.5-0.1-1-0.3-1.5-0.4c-2.2-0.6-4.5-1.1-6.7-1.7c-0.4-0.1-0.8-0.2-0.9-0.8c0-0.1,0-0.1-0.1-0.2
				c-0.1,0-0.2,0-0.2-0.1c-0.1-0.2-0.1-0.3-0.2-0.6c-1.1-0.6-2.4-1.4-3.8-2.2c0.4-1.4,0.9-3,1.3-4.4c1.2,0.2,2.5,0.2,3.6,0.7
				c0.7,0.4,1.5,0.5,2.2,0.7c0.3,0.1,0.5,0.1,0.8,0.1c0-0.1,0-0.2,0-0.2c-0.8-0.2-1.6-0.4-2.4-0.6l0.1-0.1c-0.1-0.2-0.2-0.4-0.4-0.4
				c-0.6-0.1-1.2-0.1-1.8-0.2c-0.7-0.1-1.4-0.2-2-0.3c0.2-0.7,0.4-1.4,0.5-2.1c1.6,0.1,3.1,1.3,5,0.8c-1.7-0.4-3.3-0.8-4.8-1.1
				c0.2-0.6,0.3-1.1,0.5-1.6c0.3,0,0.6,0,0.9,0v-0.1c-0.3-0.1-0.5-0.1-0.8-0.2c0-0.6,0.2-0.6,0.6-0.4c-0.1-0.3-0.2-0.5-0.3-0.8
				c0.3,0,0.5-0.1,0.8-0.1c0.4,0,0.7,0,1.1,0c0-0.1,0-0.1,0-0.2c-0.5,0-1.1-0.1-1.6-0.1c-0.1-0.1-0.1-0.1-0.2-0.2
				c0.5-0.7,1-1.3,1.4-2c0.6-1.3,1.5-0.3,2.2-0.2s1.4,0.4,2.1,0.5c0-0.1,0.1-0.2,0.1-0.3c-0.4-0.1-0.7-0.2-1.1-0.2
				c0.4-0.4,0.3-0.5-0.6-1c-0.5,0.5-1.1,0.5-1.9,0c0.4-0.4,0.8-0.9,1.1-1.3c0.4,0.1,0.8,0.2,1.1,0.3c0,0,0-0.1,0.1-0.1
				c-0.3-0.1-0.5-0.3-0.9-0.5c1.1-0.8,2-1.5,3-2.2c0.1-0.1,0.4,0,0.6,0c0.6,0.1,1.1,0.3,1.7,0.5c0-0.1,0-0.1,0.1-0.2
				c-0.5-0.2-1-0.5-1.5-0.7c0.8-0.7,1.6-0.7,2.5-0.4c0.7,0.2,1.4,0.5,2.1,0.7c-0.8-0.4-1.7-0.8-2.5-1.2v-0.1c1,0.2,1.9,0.6,2.9,0.6
				c1.4,0,2.5,0.7,3.8,0.9c1.4,0.2,2.7,0.5,4,0.8c0.4,0.1,0.8,0.4,1.2,0.5c0.4,0.1,0.9,0.1,1.3,0.1c0.6,0,1.1,0,1.5,0.5
				c0.2,0.2,0.6,0.2,0.9,0.3c0.4,0.2,1,0.4,1.3,0.7c0.9,1.2,1.8,2.5,2.7,3.7c-0.1,0.1-0.1,0.1-0.2,0.2c-0.9-0.2-1.8-0.4-2.8-0.6
				c0,0.1,0,0.2-0.1,0.2c0.2,0.1,0.5,0.2,0.7,0.3c0.7,0.2,1.4,0.4,2.1,0.6c0.3,0.1,0.4,0.4,0.8,0.7c-0.5,0-0.8,0-1.1,0
				c0,0.1,0,0.1,0,0.1c1.6,0.1,1.3,1.5,1.6,2.4c0.1,0.2,0.1,0.4,0.1,0.7c-0.2,0-0.3,0.1-0.5,0.1v0.1c1.2,0.8,0.3,2,0.7,3.1
				c-2.4-0.6-4.7-1.1-6.9-1.6c0,0.1-0.1,0.2-0.1,0.3c0.6,0.2,1.3,0.4,1.9,0.5c1.4,0.3,2.8,0.5,4.2,0.9c0.7,0.2,0.8,0.4,0.5,1.5
				c-2.5-0.4-5-0.9-7.5-1.3c0-0.9,0-1.9,0-2.9c0.9,0.2,1.8,0.5,2.6,0.7c-0.1,1.3,0.9,0.1,1.3,0.3c-0.2-0.1-0.4-0.2-0.5-0.4v-0.1
				c0.3,0,0.7,0.1,1,0.1c0-0.1,0-0.1,0-0.2c-1.4-0.3-2.9-0.6-4.3-0.9c0-0.1,0-0.1,0-0.2c0.5,0,0.9,0,1.4,0.1v-0.1
				c-0.4-0.1-0.9-0.2-1.3-0.2s-0.7-0.2-0.7-0.6c-0.2-1.1-0.9-2-1.6-2.7c-2.2-2-4.9-3.1-8-2.2c-0.3,0.1-0.6,0.1-0.9,0
				c-1-0.2-2.1-0.4-3.1-0.6c-0.5-0.1-1.1-0.4-1.6-0.5c-0.2-0.1-0.5-0.1-0.7-0.1c0,0.1,0,0.1,0,0.2c1.7,0.4,3.4,0.9,5.3,1.3
				c-0.6,0.3-1,0.6-1.5,0.9c-0.1,0.1-0.3,0-0.4,0c-2.5-0.6-4.9-1.3-7.4-1.9c0,0.1-0.1,0.2-0.1,0.4c2.5,0.6,4.9,1.2,7.4,1.9
				c-0.4,1.2-1.3,0.5-2,0.6c-0.2,0-0.4-0.1-0.6,0c0.5,0.2,1,0.4,1.5,0.6c0,0.1,0.1,0.1,0.1,0.2c-0.4,0.2-0.8,0.4-1.3,0.6
				c0.1,0,0.2,0.1,0.4,0.2c-1.2,1.7-1.7,3.6-1.5,5.7C-328.6,268.5-329,268.5-329.6,268.5z"/>
			<path class="st1" d="M-324.6,284c-0.9,2.6-2.3,4.9-4.3,6.7c-0.6,0.6-1.4,1-2,1.6c-1,0.9-2.2,0.9-3.4,0.5c-1-0.3-2-0.7-3-1
				c-0.6-0.2-1.2-0.2-1.8-0.2c0,0,0.1-0.1,0.2-0.2c0-0.1,0-0.1,0-0.2c-0.4,0-0.8,0.1-1.1,0.1c-0.5,0-0.9,0-1.4,0.1
				c0.4,0.1,0.7,0.2,1.1,0.1c0.7-0.2,1.2,0.3,1.7,0.5c0.2,0.1,0.5,0.2,0.8,0.3c1.3,0.4,2.7,0.8,4,1.2c-3.9,1.8-10.3,1.8-15.5-2.1
				c-5.4-4.2-6.8-10.8-5.8-15c2.4,0,4.9,0,7.3,0c-0.2,1.1-0.5,2.2-0.5,3.2c0,1.1,0.2,2.1,0.4,3.2c-0.4-0.2-0.9-0.4-1.4-0.6
				c0,0.1-0.1,0.2-0.1,0.2c0.3,0.2,0.7,0.3,1,0.6c0.5,0.4,1.1,0.7,1.5,1.2c2.2,3.2,6.3,4.5,9.9,3c0.3-0.1,0.7-0.1,1-0.2
				c0-0.1,0.1-0.3,0.2-0.4c2.3-1.6,3.7-3.8,4.4-6.8c0.6,0.3,1.1,0.6,1.7,0.8c0.4,0.2,0.9,0.2,1.3,0.3c1,0.2,2.1,0.2,2.9,0.6
				c0.5,0.3,0.9,0.4,1.5,0.4c-0.1,0.5-0.2,1-0.3,1.4c-0.7,0.2-1.3-0.7-2.1-0.1C-325.9,283.7-325.3,283.8-324.6,284z"/>
			<path class="st1" d="M-339.6,283c-1.8,0-3.2-1.4-3.2-3.2c0-1.8,1.5-3.2,3.2-3.2c1.8,0,3.3,1.5,3.3,3.2
				C-336.3,281.6-337.8,283-339.6,283z"/>
			<path class="st1" d="M-316.5,267.1c0,1.8-1.4,3.3-3.2,3.3c-1.8,0-3.3-1.5-3.2-3.2c0-1.8,1.4-3.2,3.2-3.2
				C-318,263.9-316.5,265.3-316.5,267.1z"/>
			<path class="st1" d="M-331.9,276.1c0.7,0.2,1.4,0.3,2.1,0.5c0-0.1,0-0.1,0.1-0.2c-0.4-0.2-0.8-0.4-1.2-0.6
				c1.3-0.4,2.4,0.6,3.6,0.8c1.2,0.2,2.3,0.6,3.5,0.9c-0.2,0.2-0.4,0.3-0.6,0.5c0.7,0.2,0.8,0.6,0.7,1.2c-0.1,0.8-0.1,1.6-0.2,2.5
				c-0.9-0.3-1.7-0.5-2.5-0.7c-0.7-0.2-1.5-0.4-2.2-0.6c-0.8-0.2-1.7-0.4-2.5-0.7c-0.2-0.1-0.4-0.3-0.4-0.4
				C-331.7,278.3-331.8,277.3-331.9,276.1z"/>
			<path class="st1" d="M-323.5,251.4c1.3-0.3,2.4-0.6,3.6-0.2c0.9,0.3,1.9,0.3,2.9,0.6c1.9,0.5,3.8,0.9,5.7,1.5
				c0.6,0.2,1.2,0.7,1.8,1c0,0.1-0.1,0.2-0.1,0.3C-314.2,253.5-318.8,252.5-323.5,251.4z"/>
			<path class="st1" d="M-319.3,250.9c2.2,0,4.3,0.4,6.2,1.4C-315.2,251.8-317.3,251.4-319.3,250.9z"/>
		</g>
		<g>
			<path class="st0" d="M-359.8,274.3c1.4-7.4,2.8-14.8,4.2-22.2c4.1,0,8.1-0.1,12.1,0.1c0,0.5-0.1,0.5-0.6,0.5
				c-0.3,0-0.7-0.1-1.1,0c0.7,0.3,1.5,0.5,2.3,0.8c-0.2,0.2-0.5,0.5-0.8,0.8c0.7-0.3,1.4-0.6,2.1-1c-0.3-0.1-0.4-0.2-0.7-0.3
				c0.4-0.2,0.8-0.5,1.1-0.5c1.7,0,3.5,2,3.4,3.7c-0.3,0-0.7,0-1,0c0,0.1,0,0.2-0.1,0.3c0.4,0.1,0.7,0.2,1.1,0.3
				c-0.3,1,0.4,2.6-1.7,2.6c0.3,0.1,0.6,0.1,0.9,0.2c-0.8,1.5-2,2.3-3.3,2.9c0.8,0.7,1.9,1.3,2.5,2.1c0.5,0.8,1,1.9,0.5,3.2
				c-0.5-0.1-1.1-0.3-1.7-0.4c0,0.1-0.1,0.1-0.1,0.2c0.5,0.3,1.1,0.6,1.7,0.9c-0.2,1.2-0.8,2.2-1.7,3.1c-0.1,0.1-0.3,0.1-0.4,0.1
				c-1.7,0.2-3.3,0.8-4.6,1.9c-0.4,0.3-0.9,0.6-1.4,0.6c-0.8,0.1-1.7-0.1-2.5-0.1c-0.2,0-0.4,0.2-0.7,0.2
				C-353.4,274.3-356.5,274.3-359.8,274.3C-359.5,274.4-359.6,274.3-359.8,274.3z M-352.8,269.3c1.4,0.2,2.7,0.3,4.1,0.5
				c-0.3-0.2-0.5-0.2-0.7-0.3c0.9-0.1,1.9-0.1,2.7-0.3c1.2-0.3,2-1.3,1.9-2.4c0-0.2,0.1-0.5,0.1-0.7c-2.3-1.4-4.9-0.6-7.5-0.8
				C-352.3,266.7-352.6,268-352.8,269.3z M-351.2,261c0.9,0,1.6-0.1,2.4,0c0.8,0.1,1.5,0.3,2.3,0.5c-0.2-0.1-0.4-0.3-0.5-0.4
				c0.7-0.3,1.4-0.4,2.1-0.8c0.7-0.4,1-1.4,0.9-2c-0.2-0.8-0.8-1.1-1.5-1.1c-1.5-0.1-3-0.1-4.5-0.1c-0.1,0-0.4,0.2-0.4,0.3
				C-350.8,258.6-351,259.7-351.2,261z M-340.8,270.5c-0.9-0.8-1.9-1-3-1c0,0.1,0,0.2-0.1,0.3c0.4,0.1,0.8,0.2,1.2,0.3
				C-342.4,270.7-341.9,270.8-340.8,270.5z M-352.1,255.4c0.1,0.3,1.8,0.7,2.7,0.6c-0.1-0.2-0.2-0.4-0.4-0.4
				C-350.5,255.5-351.3,255.4-352.1,255.4z M-339.6,264.9c-0.7,0.1-1.3,0.1-2,0.2C-340.5,265.7-339.7,265.5-339.6,264.9z M-351,258
				c-0.7-0.2-1.2-0.4-1.8-0.6C-352.3,258.2-351.9,258.4-351,258z M-350.9,253.7c0,0.1,0,0.2-0.1,0.3c0.7,0.1,1.4,0.3,2.2,0.4
				c0-0.1,0-0.2,0.1-0.2C-349.5,254-350.2,253.8-350.9,253.7z M-349.1,254.7c0,0.1,0,0.2,0,0.2c0.4,0.1,0.7,0.9,1.3,0
				C-348.3,254.8-348.7,254.7-349.1,254.7z"/>
			<path class="st0" d="M-250,290.7c0.7,0,1.4,0,2.1,0v-0.1c-0.5-0.1-0.9-0.2-1.4-0.3c1.1-1.1,2.2-2.2,3.2-3.3
				c0.9,0.6,1.7,1.2,2.6,1.6c1.5,0.8,3.2,1.1,4.9,0.9c0.4,0,0.9-0.2,1.3-0.4c0.6-0.3,1-0.8,0.8-1.4c-0.1-0.4-0.5-0.9-0.9-1.1
				c-1.4-0.5-2.8-0.8-4.2-1.3c-1.1-0.4-2.1-0.7-3.1-1.3c-1.8-1-2.6-2.7-2.2-4.7c0.5-3,2.1-5.3,5-6.4c0.5-0.2,1-0.2,1.5-0.4
				c2.9-1.1,7-0.9,9.8,0.6c0.5,0.3,0.9,0.6,1.4,0.9c0.3,0.2,0.5,0.4,0.8,0.7c-1.2,1.3-2.3,2.6-3.3,3.7c-2.1-0.5-4.1-1.2-6.1-1.5
				c-0.8-0.1-1.7,0.3-2.7,0.6c-0.5,0-1.2-0.1-1.9-0.1c0,0.1,0,0.1,0,0.2c0.6,0.1,1.3,0.3,1.9,0.4c-0.1,1.4,0.1,1.7,1.4,2.1
				c1.4,0.5,2.9,0.8,4.4,1.2c0.7,0.2,1.4,0.5,2.1,0.8c-0.2,0.3-0.3,0.5-0.4,0.7c-0.8-0.2-1.7-0.4-2.6-0.6c-0.1,0.1-0.2,0.3-0.4,0.6
				c0.7,0.2,1.4,0.4,2.1,0.7c0-0.1,0.1-0.2,0.1-0.3c-0.5-0.2-1-0.3-1.6-0.5c0-0.1,0-0.1,0.1-0.2c1.5,0.4,3,0.8,4.6,1.2
				c0,0.1,0,0.1,0,0.2c-0.8-0.2-1.6-0.3-2.3-0.5c0,0.1,0,0.1,0,0.2c0.5,0.1,0.9,0.4,1.4,0.4c1.6,0.3,2,1,1.7,2.6
				c-0.4,0.1-1-0.6-1.4,0.4c0.4,0.1,0.9,0.3,1.4,0.5c-0.3,1.6-0.9,3-2,4.2c-1.2,1.4-2.8,2.2-4.5,2.7c-2.2,0.6-4.5,0.7-6.8,0.2
				c-0.2,0-0.4-0.2-0.6-0.3c-0.2-0.1-0.3-0.2-0.5-0.2c-2.4,0-4-1.4-5.6-2.8C-250.1,290.9-250,290.8-250,290.7z M-243.1,289.9
				c1.1,0.4,2.3,0.7,3.4,0.3C-240.8,290.2-242,290.1-243.1,289.9z M-242.3,278.7c0-0.1,0.1-0.2,0.1-0.3c-0.8-0.2-1.6-0.5-2.4-0.7
				c0,0.1-0.1,0.2-0.1,0.3C-243.9,278.2-243.1,278.5-242.3,278.7z M-240.5,280.1c1,0.8,1.7,0.9,2.2,0.5
				C-239,280.5-239.6,280.3-240.5,280.1z M-237.6,291.6c0-0.1,0-0.1,0-0.2c-0.5-0.2-0.9-0.4-1.3-0.6c-0.1,0.1-0.2,0.3-0.3,0.4
				C-238.8,291.3-238.1,291.5-237.6,291.6z"/>
			<path class="st0" d="M-321.1,278c0.2,0.1,0.3,0.4,0.6,0.4c2.1,0.5,4.3,1,6.4,1.6c-0.1,0-0.2,0.1-0.2,0.1c1.5,0.3,3.1,0.6,4.9,1
				c-0.3,0.2-0.4,0.3-0.4,0.4c1.6,0.2,2.2,0.5,3.1,1.5c-0.8-0.1-1.5-0.2-2.2-0.3c0,0.1,0,0.2-0.1,0.3c0.7,0.2,1.5,0.4,2.2,0.6
				c0.9,0.2,1.6,1.4,1.3,2.3c0,0.1,0.1,0.3,0,0.4c-0.2,0.2-0.4,0.4-0.6,0.5c0.1,0.1,0.3,0.2,0.7,0.3c-0.3,0.9-0.6,1.7-0.8,2.6
				c-0.5-0.1-0.9-0.2-1.3-0.3v0.1c0.3,0.1,0.7,0.3,1.2,0.5c-0.7,0.8-1.4,1.6-2.1,2.3c-0.1,0.1-0.4,0-0.6,0c-0.6-0.2-1.2-0.4-1.9-0.6
				c0.2,1.3,1.2,0.7,2.1,1c-2.2,1.3-4.3,2.4-6.8,1c0,0.1,0,0.2,0,0.3c0.4,0.1,0.8,0.3,1.2,0.4c0,0.1,0,0.2,0,0.3
				c-1.1-0.1-2.3,0-3.4-0.2c-1-0.2-2-0.6-3.1-1c0.7,0,1.4,0,2,0c-1.1-0.2-2-1.2-3.4-0.5c0.2,0.1,0.4,0.2,0.5,0.3
				c-0.1,0.1-0.1,0.1-0.2,0.2c-1.4-0.4-2.4-1.5-3.5-2.2c1.1-1.8,2-3.5,3.1-5.2c2.6,3.1,6.1,4.2,10.2,3.4c0,0-0.1-0.1-0.2-0.1
				s-0.2-0.1-0.3-0.1c1.1-1.3,1-2.1-0.6-2.7c-1.5-0.5-3-0.8-4.4-1.3c-1.5-0.5-3-1.1-4-2.5c0.2,0,0.3-0.1,0.6-0.1
				c-1-0.3-1.4-1.1-1.3-2.5c0-0.4,0.1-0.7,0.1-1.1C-322.2,278.1-321.8,277.9-321.1,278L-321.1,278z M-306.3,286.4
				c-0.9-0.6-8.4-2.3-9.2-2c0.6,0.2,1.2,0.3,1.7,0.4c1.6,0.4,3.1,0.7,4.7,1.1c0.5,0.1,1.1,0.2,1.5,0.5
				C-307.1,286.8-306.8,286.8-306.3,286.4z M-315.6,290.6c0-0.1,0-0.2,0.1-0.2c-1.2-0.3-2.3-0.6-3.5-0.9c0,0.1,0,0.1,0,0.2
				C-318,290-316.8,290.3-315.6,290.6z M-311.4,281.6c0-0.1,0-0.2,0-0.3c-0.8-0.1-1.6-0.3-2.4-0.4c0,0.1,0,0.2,0,0.3
				C-313,281.4-312.2,281.5-311.4,281.6z M-313.6,293.7c0-0.1,0.1-0.1,0.1-0.2c-0.6-0.3-1.1-0.6-1.7-0.9
				C-315.1,293.2-314.4,293.6-313.6,293.7z"/>
			<path class="st0" d="M-289.2,272.2c3.6-0.4,6.9,1.4,10.3,1.8c-2.2-0.6-4.4-1.2-6.7-1.9c0-0.1,0-0.1,0-0.2
				c1.6,0.1,3.2,0.2,4.9,0.3c0.1,0,0.3,0.1,0.4,0.1c0.8-0.2,1.2-0.2,1.6-0.1c1.2,0.4,2.3,0.8,3.5,1.2c1,0.4,1.8,1.2,2.6,2.2
				c-1.5-0.4-2.9-0.7-4.2-1.1c-0.2,0-0.3-0.3-0.5-0.4c-0.4-0.1-0.9,0-1.4,0c0,0.1,0,0.1,0,0.2c1.4,0.4,2.8,0.8,4.2,1.2
				c0.7,0.2,1.4,0.3,2.1,0.5c0.1,0,0.3,0.2,0.4,0.4c1,1.8,1.2,3.7,0.9,5.8c-0.8-0.2-1.5-0.3-2.3-0.5c0,0,0,0.1-0.1,0.1
				c0.7,0.3,1.4,0.6,2.2,0.9c0,0.1-0.1,0.3-0.1,0.6c-2-0.5-4-1-6-1.5c0-0.3-0.1-0.6-0.1-1c0.9,0.2,1.7,0.3,2.5,0.5v-0.1
				c-0.6-0.2-1.1-0.3-1.7-0.5c-0.4-0.1-0.9,0-1-0.6c-0.1-0.3-0.1-0.7-0.4-1c-1-1-2.1-1.7-3.6-1.8c-1.3-0.1-2.7,0-3.8,0
				c0.5,0.8-0.1,1.6,0,2.6c-2.1-0.5-4-1-5.9-1.5c0.4-2.2,0.8-4.2,1.2-6.3c0.9,0.1,1.6,0.3,2.4,0.4v-0.1
				C-288.3,272.5-288.7,272.3-289.2,272.2z M-285.7,278c-0.7-0.2-1.2-0.4-1.6-0.6v-0.1c0.4,0.1,0.8,0.1,1.1,0.2v-0.1
				c-0.9-0.2-1.7-0.4-2.6-0.7C-287.9,277.2-287.1,278.1-285.7,278z M-279,278c0-0.1,0.1-0.2,0.1-0.3c-1-0.3-2-0.6-3-1
				c0,0.1,0,0.2-0.1,0.2C-280.9,277.3-279.9,277.6-279,278z"/>
			<path class="st0" d="M-268.9,282.9c0.4-1.9,0.7-3.7,1.1-5.6c2,0.5,3.8,1,5.8,1.5c-0.1,0.6-0.2,1.2-0.3,1.8
				c3.5,0.3,7-0.3,10.5,0.4c-0.2,1-0.4,1.9-0.5,2.7c-1.1-0.3-2.2-0.5-3.3-0.8c0,0.1,0,0.2-0.1,0.3c0.3,0,0.6,0.1,0.9,0.2
				c0.6,0.1,1.2,0.2,1.8,0.4c0.2,0.1,0.4,0.5,0.4,0.8s-0.1,0.6-0.2,1c-0.3,0-0.5,0-0.8,0c-3,0-5.9-0.1-8.9,0
				c-2.4,0.1-4.4-0.9-6.7-1.3c0-0.4,0.1-0.7,0.1-1c1,0.2,1.9,0.5,2.9,0.7c-0.1-0.8-0.1-0.7-0.8-0.6
				C-267.5,283.3-268.2,283-268.9,282.9z"/>
			<path class="st0" d="M-249.1,272.2c-0.1,0.5-0.2,1-0.3,1.6c-0.5-0.1-0.9-0.3-1.3-0.4c0,0,0,0.1-0.1,0.1c0.4,0.2,0.9,0.4,1.3,0.6
				c-0.3,0.5,0.2,1.4-0.8,1.6c0.7,0.5,0.1,1,0.1,1.6c-2.4,0.1-4.8,0.1-7.1-0.6c-1.6-0.5-3.2-0.7-4.8-1c0,0.3,0.1,0.5,0.1,0.5
				c0.5,0,0.9,0,1.3,0c0.5,0.1,1,0.2,1.6,0.3c0.3,0.1,0.7,0,0.8,0.5c0,0.1,0.5,0,0.8,0.1c0.2,0,0.4,0.1,0.6,0.1c0,0.1,0,0.2,0,0.2
				c-1.6,0-3.3,0-4.9,0c-0.1,0.4-0.2,0.7-0.3,1c-1.9-0.4-3.8-0.8-5.8-1.3c0.1-0.4,0.1-0.7,0.2-1.1c2.3,0.4,4.6,0.8,6.8,1.2
				c0-0.1,0-0.1,0-0.2c-1-0.2-2.1-0.4-3.1-0.8c-0.9-0.4-2-0.1-2.9-0.5c-0.3-0.1-0.5-0.3-0.8-0.5c0-0.1,0.1-0.1,0.1-0.2
				c0.6,0.2,1.1,0.3,1.7,0.5c0-0.1,0.1-0.1,0.1-0.2c-0.6-0.2-1.1-0.5-1.8-0.7c0.1-0.7,0.3-1.5,0.4-2.3
				C-260.9,272.2-255.1,272.2-249.1,272.2z M-251.1,275.6c0-0.1,0-0.1,0.1-0.2c-0.9-0.2-1.8-0.4-2.7-0.6c0,0.1,0,0.1,0,0.2
				C-252.9,275.1-252,275.4-251.1,275.6z"/>
			<path class="st0" d="M-302.4,282.6c0.6-3.5,1.3-6.8,1.9-10.2c0.5,0.1,1,0.1,1.5,0.2v-0.1c-0.1-0.1-0.2-0.1-0.4-0.2
				c1.7,0,3.3,0,5,0c-0.1,0.6-0.2,1.2-0.3,1.8c-0.3,0-0.6-0.1-0.8-0.1v0.1c0.2,0.1,0.5,0.2,0.8,0.3c-0.4,1.9-0.7,3.8-1.1,5.8
				c-0.6-0.2-1.4,0-1.6-0.9c-0.1,0.2-0.2,0.3-0.2,0.5c-1-0.2-2-0.4-2.9-0.6c0,0.1,0,0.2,0,0.2c1.6,0.3,3.1,0.7,4.9,1
				c-0.4,0.6,0.2,1.6-1,1.7c0.5,0.4,0.5,1.3,0.1,1.8c-0.1,0.1-0.3,0.2-0.4,0.2C-298.8,283.6-300.6,283.1-302.4,282.6z"/>
			<path class="st0" d="M-269,287.9c1.6,1.1,3.4,1.4,5.3,1.7c0.8,0.1,1.6,0.4,2.4,0.6c0.6,0.2,1.2,0.4,1.7,0.6c0.1,0,0.2,0.1,0.2,0
				c2.4-0.7,4.4,0.6,6.7,0.9c-0.1,0.8-0.2,1.4-0.3,2.1c0,0.2-0.4,0.4-0.5,0.4c-1.3-0.1-2.6,0.3-3.8-0.3c-0.1-0.1-0.4,0.1-0.6,0.2
				c-0.2,0.1-0.4,0.1-0.6,0.1c-1.5,0-2.9,0-4.4,0c-1.7,0-3.4,0-5.1,0c-0.4,0-0.8-0.2-1.2-0.3c-0.4,0-0.8,0-1.2,0.1
				c-0.1,0.1-0.3,0.2-0.6,0.3c0.3-1.7,0.6-3.2,0.9-4.7c0.9,0.2,1.7,0.5,2.7,0.7c-0.2-0.2-0.2-0.3-0.4-0.5c3.4,0.8,6.7,1.6,10,2.3
				c0-0.1,0.1-0.2,0.1-0.3c-4-1-8.1-1.9-12.2-2.9c0.1-0.4,0.1-0.7,0.2-1.1C-269.5,287.8-269.3,287.9-269,287.9L-269,287.9z"/>
			<path class="st0" d="M-293.5,288.9c0.3-0.7,0.5-1.4,0.8-2.1c-0.6-0.2-0.1-0.7-0.1-1.3c2,0.5,3.9,0.9,5.9,1.3
				c-0.1,0.6-0.2,1.2-0.3,1.8c2.6,0.1,5.1,0.2,7.3-1.5c0.3-0.3,1.1-0.2,1.6-0.1c1.4,0.3,2.9,0.6,4.3,1c0.1,0,0.3,0.1,0.7,0.2
				c-1,1-1.8,1.8-2.7,2.7c-0.5,0.4-1,0.7-1.6,1.1c-0.2,0.1-0.6,0.3-0.8,0.2c-1.2-0.2-2.4-0.4-3.6-0.6c-3.3-0.8-6.6-1.6-9.9-2.4
				C-292.4,289.1-292.9,289-293.5,288.9z"/>
			<path class="st0" d="M-321,278.1c-0.3-0.2-0.5-0.4-0.8-0.6c0.3-0.5,0.5-1,0.8-1.6c0.8,0.4,1.5,0.7,2.2,1l0.1-0.1
				c-0.5-0.4-0.9-0.7-1.2-0.9c1-0.3,2.1-0.7,3.4-0.9c0.5-0.1,1.1,0.2,1.7,0.3c0.4,0.1,0.7,0.2,1.1,0.3c0-0.1,0-0.1,0.1-0.2
				c-0.7-0.3-1.4-0.5-2.2-0.8c0.4-0.5,0.8-0.7,1.5-0.5c0.9,0.3,1.8,0.5,2.7,0.7c0-0.1,0-0.1,0.1-0.2c-1-0.3-1.9-0.6-3-1
				c0.5-0.6,0.9-1.2,1.3-1.7c0.1-0.1,0.3-0.2,0.4-0.2c2.8-0.1,5.5,0.4,7.9,2c-0.3,0.5-0.2,1.2-0.9,1.2c0,0.3,0,0.6-0.1,0.9
				c-0.6,1-1.3,1.9-2,2.9c-2.5-1.4-5-2.6-7.6-3.4c0,0.1-0.1,0.1-0.1,0.2c0.8,0.3,1.6,0.6,2.4,0.9c-1,0.7-2.6,0.4-2.8,2.1
				c-0.3,0-0.6,0-1,0c0.5,0.2,0.9,0.4,1.2,0.6c0,0.1,0,0.1-0.1,0.2c-0.7-0.2-1.3-0.4-2-0.5C-318.9,278.5-320,278.3-321,278.1
				C-321.1,278-321,278.1-321,278.1z"/>
			<path class="st0" d="M-293.4,289.2c2.6,0.6,5,1.2,7.5,1.8c0.6,0.1,1.2,0.2,1.8,0.4c0.4,0.1,0.8,0.5,1.2,0.6
				c1,0.2,1.9,0.4,2.9,0.6c0.2,0,0.4,0.1,0.7,0.3c-1.1,0.6-2,0.8-3.1,0.4c0.1,0.2,0.1,0.3,0.2,0.6c-1.1,0.1-2.2,0.2-3.2,0.3
				c-1.4,0-2.8-0.3-4.2-0.1c-1.5,0.2-2.8,0-4.2-0.4c-0.1,0-0.2-0.1-0.4-0.1C-294,292.1-293.7,290.7-293.4,289.2z M-287.6,292
				c0,0.1,0,0.2-0.1,0.3c0.7,0.2,1.4,0.4,2.2,0.6c0-0.1,0-0.1,0.1-0.2C-286.2,292.4-286.9,292.2-287.6,292z"/>
			<path class="st0" d="M-304,291.2c0.3-1.5,0.6-2.9,0.8-4.3c2,0.5,3.9,0.9,5.8,1.3c0.1,1.3-0.6,4.1-1.1,4.3
				c0.7,0.4,0.3,0.9,0.2,1.3c0,0.2-0.5,0.3-0.7,0.3c-1.6,0-3.1,0-4.7,0c-0.2,0-0.4,0-0.8-0.1c0.2-0.8,0.3-1.6,0.5-2.5
				c1.5,0.4,2.9,0.8,4.3,1.2c0-0.1,0-0.1,0.1-0.2C-301,291.7-302.6,291.8-304,291.2z"/>
			<path class="st0" d="M-291.3,279c1.4,0.4,2.9,0.7,4.5,1.2c0.4,0.1,0.6,0.6,0.9,0.9c0.1,0,0.2,0,0.3,0c-0.2,0.5-0.5,1-0.6,1.6
				c-0.1,0.6-0.1,1.3-0.1,1.9c-0.1,0.6-0.2,1.3-0.4,2c-2.1-0.2-4-0.8-5.7-1.7c0.1-0.8,0.2-1.6,0.4-2.4c1.7,0.4,3.3,0.8,4.9,1.2
				c0-0.1,0-0.1,0.1-0.2c-1.4-0.4-2.9-0.7-4.3-1.1c-0.2-0.1-0.4-0.2-0.6-0.3c0-0.1,0.1-0.2,0.1-0.3c1.7,0.5,3.5,0.9,5.2,1.4
				c0-0.1,0-0.1,0.1-0.2c-1.7-0.5-3.4-1-5.3-1.5C-291.7,280.5-291.5,279.7-291.3,279z"/>
			<path class="st0" d="M-271.3,283.9c-0.6,1-0.3,2.3-1.5,2.7c0,0.3-0.1,0.6-0.1,0.9c-0.1,0.5-0.5,0.3-0.8,0.2
				c-1.6-0.3-3.1-0.6-4.7-0.9c-0.2,0-0.5-0.1-0.7-0.2c0.5-1,1.1-2,1.7-3.2c0.6,0.1,1.4,0.3,2.1,0.5v-0.1c-0.5-0.2-1-0.3-1.4-0.5
				c-0.2-0.1-0.4-0.3-0.6-0.4c-0.1-0.1-0.1-0.3-0.1-0.3c0.1-0.1,0.3-0.2,0.4-0.1C-275.2,282.9-273.4,283.4-271.3,283.9z"/>
			<path class="st0" d="M-296.4,284.6c-0.3,0.4-0.5,0.6-0.7,0.9c0.7,0.7-0.2,1.5-0.1,2.5c-2-0.5-4-1-6-1.4c0.1-0.8,0.3-1.5,0.4-2.3
				c1.6,0.4,3.2,0.8,4.8,1.2c0-0.1,0-0.2,0.1-0.3c-1.6-0.4-3.2-0.8-4.8-1.2c0.1-0.3,0.1-0.6,0.2-0.9
				C-300.5,283.6-298.5,284-296.4,284.6z"/>
			<path class="st0" d="M-269,287.9c-0.2-0.2-0.4-0.3-0.7-0.6c0.2-0.9,0.3-1.8,0.5-2.8c2,0.5,3.8,1,5.8,1.5
				c-0.2,0.9-0.4,1.9-0.5,2.7C-265.7,288.5-267.4,288.2-269,287.9L-269,287.9z"/>
			<path class="st0" d="M-262.4,289c3.4,0,6.8,0,10.3,0c-0.1,0.8-0.3,1.6-0.4,2.5c-1.3-0.4-2.5-0.8-3.8-1.2
				c-0.3-0.9-1.1-0.9-1.7-1.1c-0.1-0.1-0.3-0.1-0.5,0.1c0.5,0.2,0.9,0.4,1.5,0.7c0,0.1-0.1,0.3-0.1,0.5c-1.8-0.4-3.5-0.9-5.2-1.3
				C-262.4,289.1-262.4,289.1-262.4,289z"/>
			<path class="st0" d="M-232.3,282.1c0.4,0.3,0.7,0.5,1,0.8c0,0.1,0,0.1-0.1,0.2c-0.4-0.1-0.8-0.2-1.2-0.3
				C-232.4,282.6-232.4,282.4-232.3,282.1z"/>
		</g>
	</g>
</g>
</svg>
